<svg width="45" height="44" viewBox="0 0 45 44" fill="none" xmlns="http://www.w3.org/2000/svg">
<path d="M19.855 2.50419C20.9522 0.262927 24.1467 0.262924 25.2439 2.50419L29.7499 11.7088C30.1846 12.5967 31.0289 13.2135 32.007 13.3577L42.1293 14.8495C44.5813 15.2109 45.5622 18.2212 43.7939 19.9578L36.4427 27.1774C35.7421 27.8654 35.4226 28.8528 35.5873 29.8208L37.3172 39.9912C37.7347 42.4454 35.1537 44.3109 32.9543 43.1447L23.9549 38.3726C23.0759 37.9065 22.023 37.9065 21.144 38.3726L12.1446 43.1447C9.94518 44.3109 7.3642 42.4454 7.78167 39.9912L9.51162 29.8208C9.67628 28.8528 9.35676 27.8654 8.65617 27.1774L1.30499 19.9578C-0.463336 18.2212 0.517633 15.2109 2.96965 14.8495L13.0919 13.3577C14.07 13.2135 14.9143 12.5967 15.349 11.7088L19.855 2.50419Z" fill="url(#paint0_linear_5042_9)"/>
<defs>
<linearGradient id="paint0_linear_5042_9" x1="13.7227" y1="5.57702" x2="23.5983" y2="40.5802" gradientUnits="userSpaceOnUse">
<stop offset="0.0001" stop-color="#FFED8C"/>
<stop offset="1" stop-color="#F4B335"/>
</linearGradient>
</defs>
</svg>
